<?xml version="1.0" encoding="utf-8"?>
<!-- Generator: Adobe Illustrator 15.1.0, SVG Export Plug-In . SVG Version: 6.00 Build 0)  -->
<!DOCTYPE svg PUBLIC "-//W3C//DTD SVG 1.1//EN" "http://www.w3.org/Graphics/SVG/1.1/DTD/svg11.dtd">
<svg version="1.1" id="Layer_1" xmlns="http://www.w3.org/2000/svg" xmlns:xlink="http://www.w3.org/1999/xlink" x="0px" y="0px"
	 width="800.18px" height="389.089px" viewBox="0 0 800.18 389.089" enable-background="new 0 0 800.18 389.089"
	 xml:space="preserve">
<path id="Unnamed" fill="none" stroke="#000000" stroke-width="10" stroke-linecap="round" d="M30.007-140.946
	c0,0,26.006-43.01,51.012-68.016c33.007-40.009,52.012-61.014,81.018-104.023c49.012-73.017,2.001-30.007-16.003,16.003
	c-15.004,66.015,52.012-5.001,26.006,61.014c-7.002,31.007-27.006,52.012-39.009,47.01c-7.092-4.431,26.006-30.006,55.012-15.003
	c18.005,4.001,44.01,73.017-11.002,161.036c-26.006,36.008-48.011,47.011-42.01-18.004c11.003-56.013,74.017-134.03,87.02-146.033
	c66.015-73.016-14.003,48.011,29.007,15.003c32.007-19.004-2.001,28.006,78.018-38.008 M376.085-267.975
	c0,0-23.006,45.01-23.006,58.013 M376.085-308.984c60.013-51.011,121.026-62.014,77.017-11.002
	c-23.005,29.007,15.004,30.007,27.007,53.012c12.002,18.004-13.003,61.013-38.009,77.017c-60.014,26.005-8.002-63.014,50.011-21.005
	c18.004,13.003,53.013-1,99.022-30.007c127.028-91.02,0-39.008-25.006,2c-38.008,43.01-29.006,88.021,89.021,53.012
	c23.005-7.002,94.021-34.008,121.026-31.007"/>
<g>
	<g>
		<path d="M229.075,132.824c9.2,8.874,6.079,22.705-4.431,29.127c-3.772,2.305-7.578,2.216-11.278-0.793
			c-6.063-4.931-6.968-14.724-6.944-21.916c0.061-17.897,25.993-23.612,38.896-28.576c16.021-6.163,27.2-16.978,34.878-32.318
			c7.303-14.593,10.577-31.322,10.947-47.555c0.13-5.709,1.029-23.204-7.6-24.165c-10.304-1.147-13.933,9.105-15.474,17.156
			c-1.893,9.888-2.282,20.089-2.545,30.127c-0.783,29.934,0.955,59.948,2.414,89.834c1.693,34.672,3.595,69.344,4.221,104.056
			c0.527,29.17,0.744,58.911-4.082,87.774c-1.589,9.503-3.793,19.259-8.318,27.841c-1.49,2.826-3.661,5.758-5.834,7.554
			c-0.712,0.588-1.086,0.82-1.182,0.879c-0.964,0.589-1.104,0.584-1.107,0.585c-0.835,0.347-0.566,0.275-1.779,0.31
			c-9.092,0.254-15.499-7.957-16.666-17.241c-1.739-13.826,3.374-28.642,7.919-41.465c10.568-29.819,26.24-57.328,39.86-85.771
			c15.056-31.44,10.283-68.496,17.53-101.907c1.461-6.737,3.469-13.972,7.963-19.364c3.019-3.622,7.132-3.409,11.632-2.539
			c10.236,1.979,13.596,13.698,14.431,22.594c2.164,23.042-6.749,47.843-16.584,68.25c-4.967,10.307-10.956,20.277-18.553,28.871
			c-2.803,3.171-5.954,6.24-9.561,8.492c-1.217,0.761-3.274,1.705-3.672,1.827c-1.279,0.393-1.559,0.45-3.281,0.224
			c0.598,0.345,1.195,0.689,1.793,1.034c-3.195-17.301,13.795-29.977,27.054-37.271c6.889-3.791,14.277-6.812,21.905-8.736
			c5.999-1.513,9.539-0.982,14.743,2.824c15.324,11.207,19.884,35.009,20.797,52.68c0.911,17.62-3.408,35.523-15.414,48.858
			c-7.205,8.003-17.334,13.31-28.211,11.075c-11.032-2.267-17.366-12.552-18.795-23.026c-2.607-19.108,8.036-39.008,17.99-54.43
			c8.04-12.457,17.105-24.087,24.566-36.943c6.734-11.604,12.4-23.813,16.936-36.438c15.234-42.405,11.731-86.44,11.68-130.593
			c-0.003-2.723-8.91-0.181-9.629,2.011c-2.78,8.473-4.184,17.539-5.667,26.303c-2.521,14.902-4.208,29.95-4.944,45.046
			c-0.756,15.522-0.478,31.385,2.893,46.613c2.518,11.373,7.491,23.784,17.96,30.014c8.526,5.075,20.887,6.032,29.091-0.125
			c9.159-6.874,8.91-22.322,9.111-32.503c0.239-12.147-2.021-25.348,0.876-37.263c4.968-20.432,20.088-35.723,36.747-47.491
			c1.62-1.145,1.104-2.582-0.758-2.826c-2.331-0.306-4.933,0.489-6.83,1.83c-18.011,12.722-36.991,31.33-39.603,54.492
			c-1.815,16.102,1.267,32.379-1.21,48.496c-0.522,3.397-1.385,6.748-2.783,9.892c-0.593,1.334-1.397,2.506-2.34,3.614
			c-0.769,0.903-1.986,1.262-1.271,1.202c-5.414,0.456-10.986-1.783-15.185-5.051c-9.999-7.782-13.509-21.796-15.446-33.67
			c-3.583-21.969-1.925-44.838,0.81-66.804c1.782-14.311,3.63-29.431,8.148-43.201c-3.209,0.67-6.419,1.341-9.629,2.011
			c0.024,21.16,1.197,42.314,0.41,63.472c-0.856,22.991-4.746,45.692-12.535,67.373c-4.566,12.711-10.538,24.878-17.311,36.549
			c-7.716,13.295-17.426,25.206-25.521,38.241c-9.475,15.259-18.08,33.541-16.305,51.991c1.065,11.071,7.595,20.727,18.131,24.672
			c11.209,4.197,24.351,1.251,34.5-4.357c31.97-17.667,34.397-61.152,23.245-91.982c-4.093-11.316-11.321-23.333-23.282-27.446
			c-8.552-2.941-19.63,1.308-27.618,4.201c-19.27,6.98-51.6,24.173-46.962,49.288c0.134,0.729,1.233,0.961,1.793,1.034
			c25.598,3.365,43.064-29.119,51.947-48.042c6.568-13.994,11.527-28.916,14.146-44.164c1.969-11.463,3.1-24.813-1.903-35.691
			c-4.721-10.268-14.596-12.6-25.029-12.018c-15.386,0.858-21.707,14.089-24.842,27.36c-7.916,33.504-2.488,70.605-17.488,102.33
			c-13.438,28.42-29.018,55.738-39.784,85.378c-6.59,18.144-19.522,56.799,9.148,62.583c18.185,3.669,28.689-12.317,33.17-27.327
			c7.428-24.881,7.568-52.269,7.799-78.006c0.598-66.527-6.052-132.849-6.881-199.339c-0.152-12.189-0.103-24.42,0.87-36.578
			c0.589-7.37,0.844-17.22,4.854-23.717c0.298-0.483,1.192-1.673,1.252-1.729c0.024-0.022-3.657,1.44-4.945,0.701
			c1.264,0.726,1.825,2.346,2.291,3.626c1.842,5.062,2.035,10.819,2.092,16.141c0.175,16.342-3.493,33.186-10.447,47.961
			c-3.697,7.854-8.805,15.214-15.39,20.917c-5.992,5.188-13.474,7.605-20.795,10.306c-13.97,5.152-35.34,12.028-37.927,29.242
			c-1.989,13.234,4.216,29.789,19.567,29.083c11.86-0.545,24.018-9.004,27.329-20.628c1.975-6.935-0.699-13.642-5.732-18.496
			C235.953,127.19,226.943,130.768,229.075,132.824L229.075,132.824z"/>
	</g>
</g>
<g>
	<g>
		<path d="M374.403,171.548c6.293,39.042,15.611,77.962,15.755,117.708c0.057,15.499-0.695,31.028-10.037,43.955
			c-1.709,2.364-3.776,4.491-5.99,6.383c-0.719,0.614-1.54,1.183-2.374,1.63c0.123-0.066,1.527,0.279,0.192-0.282
			c-5.27-2.216-5.165-11.442-5.22-15.985c-0.021-1.742-9.694-0.257-9.659,2.588c0.066,5.461,0.245,14.4,6.315,16.952
			c5.176,2.176,11.712-0.447,16.198-3.104c12.501-7.405,17.831-22.42,19.321-35.998c2.505-22.826-0.056-46.123-3.31-68.737
			c-3.261-22.662-7.89-45.096-11.533-67.696C383.723,166.859,373.991,168.999,374.403,171.548L374.403,171.548z"/>
	</g>
</g>
<g>
	<g>
		<path d="M384.202,181.809c5.854,5.166,10.29,12.221,14.862,18.481c5.722,7.835,11.401,15.752,17.956,22.924
			c7.412,8.109,21.236,18.175,29.496,5.391c7.698-11.916,10.578-27.59,13.877-41.154c4.143-17.032,7.532-34.244,10.79-51.463
			c1.028-5.438,2.007-10.886,3.087-16.314c-3.271,0.21-6.543,0.42-9.814,0.63c-0.076,12.91-1.989,25.818-2.374,38.734
			c-0.408,13.711-1.04,30.364,6.136,42.637c6.841,11.7,22.551,8.319,30.432-0.242c10.438-11.339,11.551-30.814,12.411-45.308
			c1.032-17.383-0.34-34.678-0.391-52.05c-0.016-5.28-9.815-3.985-9.814,0.63c0.012,44.579,0.789,89.151,1.307,133.726
			c0.252,21.693,0.316,43.385,0.433,65.078c0.067,12.683,3.691,32.715-9.423,40.501c2.199,0.286,4.398,0.573,6.598,0.859
			c-11.754-12.807-11.071-32.179-9.142-48.305c2.529-21.132,8.813-41.738,15.238-61.954c5.82-18.318,11.061-36.793,16.804-55.12
			c8.541-27.257,21.332-52.809,35.339-77.616c2.021-3.579,4.072-7.14,6.129-10.697c-3.158,0.213-6.316,0.427-9.475,0.64
			c3.396,19.069,5.604,43.703-7.915,59.538c-4.025,4.715,5.146,6.637,8.16,3.133c1.702-1.979,3.537-4.023,5.82-5.35
			c1.313-0.763,2.306-0.875,2.587-0.801c3.716,0.98,6.016,5.515,7.617,8.731c5.169,10.377,6.881,22.936,8.32,34.304
			c1.351,10.665,1.179,20.708,0.368,31.425c-0.52,6.882-1.814,14.351-8.688,17.508c-9.738,4.473-18.487-0.586-20.475-10.68
			c-0.934-4.735-10.607-2.222-9.66,2.588c2.134,10.829,10.403,17.01,21.224,17.199c9.902,0.174,20.082-4.951,24.459-13.922
			c3.907-8.011,2.958-17.773,3.802-26.395c0.496-5.065-0.314-10.439-0.821-15.478c-1.413-14.056-3.688-28.814-10.044-41.573
			c-2.278-4.574-5.925-9.268-11.089-10.63c-6.483-1.709-12.635,1.25-17.391,5.561c-1.498,1.358-2.872,2.848-4.189,4.379
			c2.72,1.044,5.44,2.088,8.16,3.133c15.023-17.598,13.206-43.967,9.415-65.258c-0.827-4.64-7.99-1.928-9.475,0.64
			c-14.269,24.677-27.748,49.776-37.512,76.623c-6.983,19.201-11.845,39.229-18.147,58.68
			c-6.505,20.077-12.845,40.313-16.691,61.096c-3.163,17.094-5.328,36.958,2.118,53.284c1.623,3.558,3.693,6.795,6.339,9.678
			c1.611,1.756,4.522,2.091,6.598,0.859c14.071-8.354,15.479-23.327,15.093-38.313c-0.567-21.985-0.349-43.999-0.581-65.992
			c-0.498-47.236-1.382-94.469-1.395-141.709c-3.271,0.21-6.543,0.42-9.814,0.63c0.044,14.772,1.096,29.496,0.715,44.28
			c-0.39,15.118-0.559,34.746-9.712,47.618c-2.463,3.462-6.761,6.355-10.768,4.805c-4.465-1.729-6.156-8.402-7.155-12.482
			c-3.684-15.056-2.258-31.535-1.196-46.832c0.517-7.451,1.487-14.945,1.531-22.419c0.032-5.445-8.943-3.749-9.814,0.63
			c-6.058,30.455-10.695,61.488-20.327,91.089c-1.663,5.11-3.512,11.003-6.588,15.276c-0.816,1.134-0.337,0.606-1.049,1.166
			c0.486-0.382,0.672-0.461,1.056-0.441c-2.819-0.147-5.502-2.688-7.515-4.413c-13.796-11.822-22.278-29.025-34.135-42.608
			c-1.338-1.534-2.778-2.995-4.304-4.341C388.169,173.009,379.895,178.008,384.202,181.809L384.202,181.809z"/>
	</g>
</g>
<g>
	<g>
		<path d="M554.949,235.833c-7.162-2.002-9.233-13.729-10.073-19.892c-1.4-10.27,4.924-16.608,14.104-19.618
			c1.328-0.436,4.741-1.628,4.192-3.676c-0.522-1.949-4.144-1.521-5.468-1.087c-11.169,3.662-22.202,9.9-22.708,22.95
			c-0.373,9.608,3.753,23.65,14.024,26.521C552.045,241.875,560.388,237.352,554.949,235.833L554.949,235.833z"/>
	</g>
</g>
<g>
	<g>
		<path d="M594.088,179.989c16.36-5.966,34.71-5.914,51.719-9.087c16.376-3.055,34.773-8.458,45.656-21.975
			c11.748-14.592,11.772-35.179,8.174-52.677c-3.695-17.97-12.318-36.775-26.394-48.964c-1.951-1.69-10.532,2.039-9.105,3.274
			c13.298,11.516,21.088,28.821,25.234,45.605c4.142,16.762,4.65,36.772-5.307,51.671c-9.668,14.468-27.971,18.325-43.996,20.842
			c-16.474,2.588-33.51,3.412-49.306,9.172c-0.409,0.149-4.356,1.762-2.891,2.706C589.452,181.575,592.543,180.552,594.088,179.989
			L594.088,179.989z"/>
	</g>
</g>
<g>
	<g>
		<path d="M364.482,326.458c0.331-12.889,9.682-17.534,20.21-22.266c13.05-5.866,25.767-12.207,39.162-17.308
			c27.133-10.333,55.718-16.238,84.706-17.593c13.875-0.648,27.695-1.265,41.532,0.366c13.884,1.635,25.706,5.909,35.604,15.983
			c8.564,8.718,17.567,16.297,29.286,20.344c11.529,3.981,24.37,3.856,35.984,0.368c4.772-1.434,9.165-3.659,13.415-6.222
			c1.78-1.073,2.395-3.696,0.524-4.975c-2.157-1.475-4.907-0.629-6.925,0.588c-11.315,6.82-24.966,7.663-37.418,3.747
			c-12.349-3.883-20.525-13.118-29.641-21.666c-19.219-18.024-49.939-17.229-74.553-15.856c-28.927,1.613-56.7,5.595-84.294,14.771
			c-13.525,4.498-26.714,9.975-39.615,16.02c-9.986,4.679-22.299,8.752-30.305,16.634c-4.933,4.856-7.282,10.926-7.458,17.807
			C354.569,332.25,364.371,330.8,364.482,326.458L364.482,326.458z"/>
	</g>
</g>
</svg>
